<?xml version="1.0" encoding="UTF-8"?>
<svg width="240" height="60" viewBox="0 0 240 60" fill="none" xmlns="http://www.w3.org/2000/svg">
  <!-- Icon: Shield with Book Pages -->
  <g id="icon">
    <!-- Shield Background -->
    <path d="M30 8C30 8 22 10 15 10C8 10 0 8 0 8V25C0 35 7 44 15 48C23 44 30 35 30 25V8Z" fill="#0EA5A4"/>
    
    <!-- Book Pages -->
    <path d="M8 16H22V18H8V16Z" fill="white" opacity="0.9"/>
    <path d="M8 20H22V22H8V20Z" fill="white" opacity="0.9"/>
    <path d="M8 24H18V26H8V24Z" fill="white" opacity="0.9"/>
    <path d="M8 28H20V30H8V28Z" fill="white" opacity="0.9"/>
    
    <!-- Data Lines (Abstract) -->
    <circle cx="24" cy="18" r="1.5" fill="white" opacity="0.7"/>
    <circle cx="24" cy="22" r="1.5" fill="white" opacity="0.7"/>
    <circle cx="24" cy="26" r="1.5" fill="white" opacity="0.7"/>
  </g>
  
  <!-- Wordmark -->
  <g id="wordmark">
    <text x="45" y="25" font-family="system-ui, -apple-system, sans-serif" font-size="20" font-weight="700" fill="#0F172A">Edu</text>
    <text x="45" y="45" font-family="system-ui, -apple-system, sans-serif" font-size="20" font-weight="700" fill="#0EA5A4">Manage</text>
  </g>
</svg>